<svg width="26" height="26" viewBox="0 0 26 26" fill="none" xmlns="http://www.w3.org/2000/svg">
<g filter="url(#filter0_d)">
<path fill-rule="evenodd" clip-rule="evenodd" d="M13 0.5C15.3085 0.5 15.5979 0.509785 16.5045 0.551151C17.4093 0.592416 18.0272 0.736118 18.5678 0.946256C19.1268 1.16345 19.6008 1.45409 20.0734 1.92663C20.5459 2.3992 20.8366 2.87323 21.0538 3.43218C21.2639 3.97284 21.4076 4.59073 21.4488 5.49546C21.4902 6.40208 21.5 6.69154 21.5 9.00002C21.5 11.3085 21.4902 11.5979 21.4488 12.5045C21.4076 13.4093 21.2639 14.0272 21.0538 14.5678C20.8366 15.1268 20.5459 15.6008 20.0734 16.0734C19.6008 16.5459 19.1268 16.8366 18.5678 17.0538C18.0272 17.2639 17.4093 17.4076 16.5045 17.4488C15.5979 17.4902 15.3085 17.5 13 17.5C10.6915 17.5 10.4021 17.4902 9.49546 17.4488C8.59073 17.4076 7.97284 17.2639 7.43218 17.0538C6.87323 16.8366 6.3992 16.5459 5.92663 16.0734C5.45409 15.6008 5.16345 15.1268 4.94626 14.5678C4.73612 14.0272 4.59242 13.4093 4.55115 12.5045C4.50978 11.5979 4.5 11.3085 4.5 9.00002C4.5 6.69154 4.50978 6.40208 4.55115 5.49546C4.59242 4.59073 4.73612 3.97284 4.94626 3.43218C5.16345 2.87323 5.45409 2.3992 5.92663 1.92663C6.3992 1.45409 6.87323 1.16345 7.43218 0.946256C7.97284 0.736118 8.59073 0.592416 9.49546 0.551151C10.4021 0.509785 10.6915 0.5 13 0.5ZM12.9973 11.8298C14.5616 11.8298 15.8298 10.5616 15.8298 8.99734C15.8298 7.433 14.5616 6.16488 12.9973 6.16488C11.433 6.16488 10.1649 7.433 10.1649 8.99734C10.1649 10.5616 11.433 11.8298 12.9973 11.8298ZM12.9973 4.63383C15.4072 4.63383 17.3608 6.58742 17.3608 8.99734C17.3608 11.4072 15.4072 13.3608 12.9973 13.3608C10.5874 13.3608 8.63383 11.4072 8.63383 8.99734C8.63383 6.58742 10.5874 4.63383 12.9973 4.63383ZM18.8556 4.37224C18.8556 4.94601 18.3904 5.41111 17.8166 5.41111C17.2429 5.41111 16.7778 4.94601 16.7778 4.37224C16.7778 3.79847 17.2429 3.33333 17.8166 3.33333C18.3904 3.33333 18.8556 3.79847 18.8556 4.37224Z" fill="white"/>
</g>
<defs>
<filter id="filter0_d" x="0.5" y="0.5" width="25" height="25" filterUnits="userSpaceOnUse" color-interpolation-filters="sRGB">
<feFlood flood-opacity="0" result="BackgroundImageFix"/>
<feColorMatrix in="SourceAlpha" type="matrix" values="0 0 0 0 0 0 0 0 0 0 0 0 0 0 0 0 0 0 127 0"/>
<feOffset dy="4"/>
<feGaussianBlur stdDeviation="2"/>
<feColorMatrix type="matrix" values="0 0 0 0 0 0 0 0 0 0 0 0 0 0 0 0 0 0 0.25 0"/>
<feBlend mode="normal" in2="BackgroundImageFix" result="effect1_dropShadow"/>
<feBlend mode="normal" in="SourceGraphic" in2="effect1_dropShadow" result="shape"/>
</filter>
</defs>
</svg>
